<svg xmlns="http://www.w3.org/2000/svg" version="1.1" xmlns:xlink="http://www.w3.org/1999/xlink" xmlns:svgjs="http://svgjs.com/svgjs" width="1440" height="560" preserveAspectRatio="none" viewBox="0 0 1440 560"><g mask="url(&quot;#SvgjsMask1008&quot;)" fill="none"><rect width="1440" height="560" x="0" y="0" fill="rgba(18, 21, 23, 1)"></rect><path d="M0 35.4C17.23 4.07 36.85 10.15 77 0C106.85 -7.55 108.5 0 140 0C175 0 177.47 -9.29 210 0C247.47 10.71 246.71 40 280 40C305.94 40 299.97 8.14 328.46 0C369.97 -11.86 374.23 0 420 0C490 0 490 0 560 0C630 0 630 0 700 0C770 0 770 0 840 0C910 0 910 0 980 0C1050 0 1050 0 1120 0C1190 0 1190 0 1260 0C1310.84 0 1323.26 -20.39 1361.68 0C1393.26 16.76 1377.95 74.29 1400 74.29C1424.28 74.29 1418.08 19.24 1454.33 0C1488.08 -17.91 1523.74 -26.57 1540 0C1566.57 43.43 1540 70 1540 140C1540 200.75 1572.01 241.61 1540 261.51C1502.01 285.12 1459.89 220.54 1400 227.03C1374.58 229.78 1369.38 255.59 1369.38 280C1369.38 297.15 1384.31 295.47 1400 310.15C1459.12 365.47 1459.63 364.94 1519 420C1529.63 429.86 1537.96 426.38 1540 440C1548.46 496.38 1572.31 532.31 1540 560C1502.31 592.31 1470 560 1400 560C1330 560 1330 560 1260 560C1190 560 1190 560 1120 560C1050 560 1050 560 980 560C910 560 910 560 840 560C802.82 560 801.32 567.23 765.63 560C731.32 553.04 733.4 531.62 700 531.62C658.58 531.62 658.9 551.3 616 560C588.9 565.49 588 560 560 560C490 560 490 560 420 560C350 560 350 560 280 560C225.56 560 174.29 587.54 171.11 560C166.21 517.54 272.63 470.32 263.85 420C257.07 381.15 202.61 398.28 140 381.67C70.68 363.28 47.05 384.17 0 350C-22.95 333.34 0 315 0 280C0 210 0 210 0 140C0 87.7 -21.27 74.07 0 35.4" stroke="rgba(41, 48, 53, 1)" stroke-width="2"></path><path d="M700 134.25C694.13 134.25 688.95 135.99 688.95 140C688.95 145.64 693.24 153.55 700 153.55C710.43 153.55 723.33 145.1 723.33 140C723.33 135.45 711.32 134.25 700 134.25" stroke="rgba(41, 48, 53, 1)" stroke-width="2"></path><path d="M840 375C822.53 375 807.27 395.84 807.27 420C807.27 454.34 822.19 492 840 492C858.55 492 880 453.8 880 420C880 395.3 858.9 375 840 375" stroke="rgba(41, 48, 53, 1)" stroke-width="2"></path><path d="M0 504C3.22 504 12.73 537.08 12.73 560C12.73 565.08 1.18 565.19 0 560C-5.19 537.19 -3.14 504 0 504" stroke="rgba(41, 48, 53, 1)" stroke-width="2"></path><path d="M0 75.63C48.44 40.75 71.48 34.32 140 39.2C211.48 44.29 215.89 105.39 280 95.56C343.77 85.79 335.5 41.14 395.77 0C405.5 -6.64 407.88 0 420 0C490 0 490 0 560 0C630 0 630 0 700 0C770 0 770 0 840 0C910 0 910 0 980 0C1028 0 1076 -23.59 1076 0C1076 38.63 1042.28 95.03 980 124.44C924.28 150.75 909.6 120.91 840 111.43C769.6 101.84 766.89 78.44 700 86.3C645.31 92.73 596.84 102.52 596.84 140C596.84 192.59 637.57 250.82 700 266.45C759.15 281.26 779.32 196.73 840 200.87C878.67 203.51 898.71 246.8 898.71 280C898.71 302.61 862.96 289.02 840 312.5C794.52 359.02 803.71 368.59 761.82 420C733.71 454.5 738.74 466.21 700 484.32C637.83 513.39 627.7 492.59 560 514.35C509.97 530.43 513.81 543.94 464.55 560C443.81 566.76 442.27 560 420 560C350 560 350 560 280 560C245 560 210 577.58 210 560C210 530.56 236.98 503.47 280 465.97C317.28 433.47 330.58 449.69 370.59 420C400.58 397.74 399.95 394.03 420 362.07C443.85 324.03 458.39 319.31 458.39 280C458.39 251.23 448.55 237.11 420 225.91C359.35 202.11 338.99 193.21 280 210C243.99 220.25 261.01 251.21 230 280C191.01 316.21 184.76 340 140 340C96.31 340 94.55 312.48 53.1 280C24.55 257.64 11.84 261.54 0 230.32C-14.71 191.54 0 185.16 0 140C0 107.81 -21.56 91.15 0 75.63" stroke="rgba(41, 48, 53, 1)" stroke-width="2"></path><path d="M1260 133.91C1218.63 133.91 1166.67 42.6 1166.67 0C1166.67 -24.36 1213.34 0 1260 0C1292.42 0 1324.84 -20.32 1324.84 0C1324.84 46.63 1297.71 133.91 1260 133.91" stroke="rgba(41, 48, 53, 1)" stroke-width="2"></path><path d="M1412.17 140C1403.01 86.45 1453.22 58.43 1506.57 0C1517.13 -11.57 1536.78 -13.49 1540 0C1553.49 56.51 1540 70 1540 140C1540 167.74 1558.2 195.47 1540 195.47C1494.28 195.47 1419.73 184.19 1412.17 140" stroke="rgba(41, 48, 53, 1)" stroke-width="2"></path><path d="M1130.37 280C1159.94 204.07 1207.86 150.37 1260 150.37C1300.02 150.37 1276.87 222.29 1314.69 280C1346.87 329.11 1356.8 322.57 1400 364C1429.79 392.57 1460.67 389.86 1460.67 420C1460.67 455.01 1432.09 458.74 1400 494.29C1368.9 528.74 1373.19 541.74 1334.29 560C1303.19 574.6 1297.14 560 1260 560C1190 560 1190 560 1120 560C1050 560 1050 560 980 560C960.91 560 946.58 574.99 941.82 560C924.36 504.99 923.73 486.2 935.56 420C942.82 379.36 951.68 346.32 980 346.32C1017.65 346.32 1022.6 384.66 1067.5 420C1092.6 439.76 1095.57 456.52 1120 456.52C1139.32 456.52 1153.64 443.16 1155 420C1158.82 354.9 1107.44 338.88 1130.37 280" stroke="rgba(41, 48, 53, 1)" stroke-width="2"></path><path d="M1461.92 560C1461.92 541.81 1516.14 495.56 1540 495.56C1555.18 495.56 1557.65 545.43 1540 560C1518.61 577.65 1461.92 574.03 1461.92 560" stroke="rgba(41, 48, 53, 1)" stroke-width="2"></path><path d="M0 115.86C38.33 115.86 95.45 125.7 95.45 140C95.45 154.71 35.76 173.87 0 173.87C-11.96 173.87 0 156.94 0 140C0 127.93 -9.4 115.86 0 115.86" stroke="rgba(41, 48, 53, 1)" stroke-width="2"></path><path d="M380 140C380 134.36 401.52 124.44 420 124.44C429.76 124.44 436.47 133.84 436.47 140C436.47 144.8 428.57 146.36 420 146.36C400.34 146.36 380 145.32 380 140" stroke="rgba(41, 48, 53, 1)" stroke-width="2"></path><path d="M700 38.36C664.7 31.43 636.36 10.33 636.36 0C636.36 -8.85 668.18 0 700 0C770 0 770 0 840 0C910 0 910 0 980 0C1003 0 1026 -11.31 1026 0C1026 18.51 1012.32 52.68 980 59.63C919.32 72.68 910.34 45.34 840 40C770.34 34.71 766.52 51.43 700 38.36" stroke="rgba(41, 48, 53, 1)" stroke-width="2"></path><path d="M1260 57.83C1242.13 57.83 1219.7 18.4 1219.7 0C1219.7 -10.52 1239.85 0 1260 0C1274 0 1288 -8.78 1288 0C1288 20.14 1276.28 57.83 1260 57.83" stroke="rgba(41, 48, 53, 1)" stroke-width="2"></path><path d="M113.45 280C113.45 241.81 126.51 194.44 140 194.44C153.53 194.44 167.5 242.02 167.5 280C167.5 293.97 153.68 298.33 140 298.33C126.65 298.33 113.45 293.75 113.45 280" stroke="rgba(41, 48, 53, 1)" stroke-width="2"></path><path d="M514.84 280C523.6 236.42 533.79 200 560 200C589.71 200 594.64 238.97 626.67 280C664.64 328.65 666.9 327.68 700 379.35C711.75 397.68 716.36 401.26 716.36 420C716.36 430.1 711.28 435.71 700 437.03C633.1 444.84 628.65 444.61 560 438.26C536.55 436.09 521.54 440.15 515.79 420C498.96 361.02 501.49 346.42 514.84 280" stroke="rgba(41, 48, 53, 1)" stroke-width="2"></path><path d="M1227.92 420C1261.48 359.45 1223.66 280.45 1260 280C1309.7 279.38 1329.97 348.96 1400 417.85C1401.13 418.96 1402.33 418.84 1402.33 420C1402.33 421.35 1401.3 421.55 1400 422.86C1331.57 491.55 1331.84 492.43 1262.86 560C1261.84 561 1261.43 560 1260 560C1190 560 1190 560 1120 560C1099.68 560 1079.35 566.21 1079.35 560C1079.35 552.51 1102.24 549.35 1120 532.61C1176.52 479.35 1191.48 485.75 1227.92 420" stroke="rgba(41, 48, 53, 1)" stroke-width="2"></path><path d="M248.89 560C248.89 546.92 260.05 518.21 280 518.21C312.44 518.21 353.68 548.83 353.68 560C353.68 569.72 316.84 560 280 560C264.44 560 248.89 567.81 248.89 560" stroke="rgba(41, 48, 53, 1)" stroke-width="2"></path><path d="M1529.23 560C1529.23 557.49 1536.71 551.11 1540 551.11C1542.09 551.11 1542.44 557.99 1540 560C1537.05 562.44 1529.23 561.94 1529.23 560" stroke="rgba(41, 48, 53, 1)" stroke-width="2"></path></g><defs><mask id="SvgjsMask1008"><rect width="1440" height="560" fill="#ffffff"></rect></mask></defs></svg>