<svg xmlns="http://www.w3.org/2000/svg" version="1.1" xmlns:xlink="http://www.w3.org/1999/xlink" xmlns:svgjs="http://svgjs.com/svgjs" width="1440" height="560" preserveAspectRatio="none" viewBox="0 0 1440 560"><g mask="url(&quot;#SvgjsMask1001&quot;)" fill="none"><rect width="1440" height="560" x="0" y="0" fill="rgba(22, 26, 29, 1)"></rect><path d="M0,603.548C115.204,601.115,226.399,565.419,323.571,503.487C420.995,441.394,520.85,363.282,551.676,251.942C581.516,144.165,498.422,41.32,482.162,-69.324C465.973,-179.481,519.865,-304.012,456.515,-395.573C392.486,-488.116,268.353,-516.136,157.948,-537.922C54.43,-558.349,-53.31,-554.473,-151.372,-515.525C-244.344,-478.599,-315.431,-405.427,-376.034,-325.836C-433.688,-250.118,-478.15,-164.884,-490.238,-70.486C-502.211,23.012,-468.14,111.595,-443.707,202.634C-414.271,312.315,-416.737,441.209,-332.476,517.343C-245.77,595.686,-116.831,606.015,0,603.548" fill="#121517"></path><path d="M1440 1099.65C1537.506 1079.856 1587.789 973.6469999999999 1674.643 925.1120000000001 1769.989 871.832 1904.0819999999999 888.688 1971.415 802.689 2040.971 713.85 2045.437 586.903 2026.5349999999999 475.669 2007.882 365.899 1941.027 273.179 1867.263 189.774 1794.099 107.048 1713.805 16.432000000000016 1604.784-1.2039999999999509 1498.512-18.395999999999958 1397.701 44.75599999999997 1304.564 98.74599999999998 1227.799 143.24599999999998 1184.753 222.52999999999997 1117.997 280.983 1037.128 351.794 895.852 373.596 871.191 478.218 846.936 581.118 960.1669999999999 662.921 1005.448 758.453 1049.904 852.2429999999999 1053.311 970.576 1134.946 1034.673 1218.408 1100.205 1336.006 1120.761 1440 1099.65" fill="#1a1f23"></path></g><defs><mask id="SvgjsMask1001"><rect width="1440" height="560" fill="#ffffff"></rect></mask></defs></svg>